<svg xmlns="http://www.w3.org/2000/svg" viewBox="0 0 256 256">
  <defs>
    <linearGradient id="sky" x1="0" y1="0" x2="1" y2="1">
      <stop stop-color="#062754"/>
      <stop offset="1" stop-color="#0d6b75"/>
    </linearGradient>
    <linearGradient id="earth" x1="0" y1="0" x2="1" y2="1">
      <stop stop-color="#4ee1ed"/>
      <stop offset="1" stop-color="#1684c8"/>
    </linearGradient>
  </defs>
  <rect width="256" height="256" rx="56" fill="url(#sky)"/>
  <circle cx="128" cy="128" r="82" fill="url(#earth)" stroke="#b8f94f" stroke-width="10"/>
  <path d="M77 106c24-32 44-12 54-35 14 18 40 10 49 35-20 5-26 18-34 34-17-6-28-9-45 2-8-18-13-27-24-36Z" fill="#b8f94f"/>
  <path d="M88 161c17-19 36-23 55-11 11 7 23 4 34-2-6 25-26 44-51 50-19-9-32-19-38-37Z" fill="#5fbd42"/>
  <path d="M173 51l9 21 21 9-21 9-9 21-9-21-21-9 21-9 9-21Z" fill="#fff4a3"/>
</svg>
